<?xml version="1.0" encoding="UTF-8"?>
<!-- Generator: Adobe Illustrator 25.2.3, SVG Export Plug-In . SVG Version: 6.00 Build 0)  -->
<svg xmlns="http://www.w3.org/2000/svg" xmlns:xlink="http://www.w3.org/1999/xlink" version="1.1" id="レイヤー_1" x="0px" y="0px" viewBox="0 0 28 25" style="enable-background:new 0 0 28 25;" xml:space="preserve">
<style type="text/css">
	.st0{fill:#FFFFFF;}
</style>
<path id="linkedin-3" class="st0" d="M21.3,0H6.7C3.8,0,1.5,2.3,1.5,5.2v14.6c0,2.9,2.3,5.2,5.2,5.2l0,0h14.6c2.9,0,5.2-2.3,5.2-5.2  l0,0V5.2C26.5,2.3,24.2,0,21.3,0z M9.8,19.8H6.7V8.3h3.1C9.8,8.3,9.8,19.8,9.8,19.8z M8.3,7c-1,0-1.8-0.8-1.9-1.8  c0-1,0.8-1.8,1.8-1.9c1,0,1.8,0.8,1.9,1.8l0,0C10.1,6.2,9.3,7,8.3,7z M22.3,19.8h-3.1V14c0-3.5-4.2-3.2-4.2,0v5.8h-3.1V8.3H15v1.8  c1.5-2.7,7.3-2.9,7.3,2.6V19.8z"></path>
</svg>
