<?xml version="1.0" encoding="UTF-8"?>
<!-- Generator: Adobe Illustrator 26.3.1, SVG Export Plug-In . SVG Version: 6.00 Build 0)  -->
<svg xmlns="http://www.w3.org/2000/svg" xmlns:xlink="http://www.w3.org/1999/xlink" version="1.1" id="レイヤー_1" x="0px" y="0px" viewBox="0 0 28 25" style="enable-background:new 0 0 28 25;" xml:space="preserve">
<style type="text/css">
	.st0{fill:#FFFFFF;}
</style>
<path class="st0" d="M27.4,6c-0.3-1.1-1.3-2.1-2.5-2.5C22.7,2.8,14,2.8,14,2.8s-8.7,0-10.9,0.6C1.9,3.9,0.9,4.8,0.6,6  C0,8.2,0,12.6,0,12.6s0,4.5,0.6,6.7c0.3,1.1,1.3,2.1,2.5,2.5C5.3,22.5,14,22.5,14,22.5s8.7,0,10.9-0.6c1.1-0.3,2.1-1.3,2.5-2.5  c0.6-2.2,0.6-6.7,0.6-6.7S27.9,8.2,27.4,6z M11.2,16.8V8.5l7.2,4.2L11.2,16.8z"></path>
</svg>
